<mxfile host="app.diagrams.net" modified="2024-02-19T22:20:05.665Z" agent="Mozilla/5.0 (Windows NT 10.0; Win64; x64; rv:122.0) Gecko/20100101 Firefox/122.0" etag="trcJZKkgIOfcb7aQVrL-" version="23.1.5" type="device">
  <diagram id="C5RBs43oDa-KdzZeNtuy" name="Page-1">
    <mxGraphModel dx="1434" dy="746" grid="1" gridSize="10" guides="1" tooltips="1" connect="1" arrows="1" fold="1" page="1" pageScale="1" pageWidth="827" pageHeight="1169" math="0" shadow="0">
      <root>
        <mxCell id="WIyWlLk6GJQsqaUBKTNV-0" />
        <mxCell id="WIyWlLk6GJQsqaUBKTNV-1" parent="WIyWlLk6GJQsqaUBKTNV-0" />
        <mxCell id="WIyWlLk6GJQsqaUBKTNV-3" value="Timeseries&lt;br&gt;Latitude, Longitude, Altitude" style="rounded=1;whiteSpace=wrap;html=1;fontSize=12;glass=0;strokeWidth=1;shadow=0;fillColor=#60a917;fontColor=#ffffff;strokeColor=#2D7600;" parent="WIyWlLk6GJQsqaUBKTNV-1" vertex="1">
          <mxGeometry x="90" y="50" width="140" height="60" as="geometry" />
        </mxCell>
        <mxCell id="b3d6tO9OOzQfFbIuxBPO-28" style="edgeStyle=orthogonalEdgeStyle;rounded=0;orthogonalLoop=1;jettySize=auto;html=1;exitX=0.5;exitY=1;exitDx=0;exitDy=0;entryX=0.25;entryY=0;entryDx=0;entryDy=0;strokeWidth=2;" edge="1" parent="WIyWlLk6GJQsqaUBKTNV-1" source="nY5QdWtAfCeqt1IPBH1M-0" target="b3d6tO9OOzQfFbIuxBPO-17">
          <mxGeometry relative="1" as="geometry" />
        </mxCell>
        <mxCell id="nY5QdWtAfCeqt1IPBH1M-0" value="Solar zenith&lt;br&gt;Solar altitude&amp;nbsp;&lt;br&gt;Solar elevation" style="rounded=0;whiteSpace=wrap;html=1;fillColor=#1ba1e2;fontColor=#ffffff;strokeColor=default;" parent="WIyWlLk6GJQsqaUBKTNV-1" vertex="1">
          <mxGeometry x="70" y="160" width="180" height="60" as="geometry" />
        </mxCell>
        <mxCell id="nY5QdWtAfCeqt1IPBH1M-9" value="" style="endArrow=classic;html=1;rounded=0;exitX=0.5;exitY=1;exitDx=0;exitDy=0;entryX=0.5;entryY=0;entryDx=0;entryDy=0;" parent="WIyWlLk6GJQsqaUBKTNV-1" source="WIyWlLk6GJQsqaUBKTNV-3" target="nY5QdWtAfCeqt1IPBH1M-0" edge="1">
          <mxGeometry relative="1" as="geometry">
            <mxPoint x="170" y="400" as="sourcePoint" />
            <mxPoint x="270" y="400" as="targetPoint" />
          </mxGeometry>
        </mxCell>
        <mxCell id="nY5QdWtAfCeqt1IPBH1M-10" value="solarposition.get_solarposition" style="edgeLabel;resizable=0;html=1;align=center;verticalAlign=middle;" parent="nY5QdWtAfCeqt1IPBH1M-9" connectable="0" vertex="1">
          <mxGeometry relative="1" as="geometry" />
        </mxCell>
        <mxCell id="b3d6tO9OOzQfFbIuxBPO-23" style="edgeStyle=orthogonalEdgeStyle;rounded=0;orthogonalLoop=1;jettySize=auto;html=1;entryX=0.5;entryY=0;entryDx=0;entryDy=0;strokeWidth=2;" edge="1" parent="WIyWlLk6GJQsqaUBKTNV-1" source="b3d6tO9OOzQfFbIuxBPO-0" target="b3d6tO9OOzQfFbIuxBPO-17">
          <mxGeometry relative="1" as="geometry" />
        </mxCell>
        <mxCell id="b3d6tO9OOzQfFbIuxBPO-0" value="&lt;div&gt;Tracker/axis azimuth&lt;/div&gt;&lt;div&gt;Real weather data&lt;br&gt;&lt;/div&gt;&lt;div&gt;GHI, DNI, DHI&lt;/div&gt;" style="rounded=1;whiteSpace=wrap;html=1;fontSize=12;glass=0;strokeWidth=1;shadow=0;fillColor=#60a917;fontColor=#ffffff;strokeColor=#2D7600;" vertex="1" parent="WIyWlLk6GJQsqaUBKTNV-1">
          <mxGeometry x="300" y="155" width="140" height="70" as="geometry" />
        </mxCell>
        <mxCell id="b3d6tO9OOzQfFbIuxBPO-25" style="edgeStyle=orthogonalEdgeStyle;rounded=0;orthogonalLoop=1;jettySize=auto;html=1;exitX=0.5;exitY=1;exitDx=0;exitDy=0;entryX=0.75;entryY=0;entryDx=0;entryDy=0;strokeWidth=2;" edge="1" parent="WIyWlLk6GJQsqaUBKTNV-1" source="b3d6tO9OOzQfFbIuxBPO-1" target="b3d6tO9OOzQfFbIuxBPO-17">
          <mxGeometry relative="1" as="geometry" />
        </mxCell>
        <mxCell id="b3d6tO9OOzQfFbIuxBPO-1" value="&lt;div&gt;Beta&lt;/div&gt;&lt;div&gt;- Max. rotation angle &amp;lt;= Beta &amp;lt;= Max rotation angle&lt;br&gt;&lt;/div&gt;&lt;div&gt;Resolution of 2Â°&lt;br&gt;&lt;/div&gt;" style="rounded=0;whiteSpace=wrap;html=1;fillStyle=solid;fillColor=#E67300;strokeColor=#663300;" vertex="1" parent="WIyWlLk6GJQsqaUBKTNV-1">
          <mxGeometry x="460" y="170" width="290" height="50" as="geometry" />
        </mxCell>
        <mxCell id="b3d6tO9OOzQfFbIuxBPO-20" style="edgeStyle=orthogonalEdgeStyle;rounded=0;orthogonalLoop=1;jettySize=auto;html=1;exitX=0.5;exitY=1;exitDx=0;exitDy=0;entryX=0.5;entryY=0;entryDx=0;entryDy=0;strokeWidth=2;" edge="1" parent="WIyWlLk6GJQsqaUBKTNV-1" source="b3d6tO9OOzQfFbIuxBPO-17" target="b3d6tO9OOzQfFbIuxBPO-19">
          <mxGeometry relative="1" as="geometry" />
        </mxCell>
        <mxCell id="b3d6tO9OOzQfFbIuxBPO-17" value="POA irradiance (global, direct, diffuse)" style="rounded=0;whiteSpace=wrap;html=1;fillStyle=solid;fillColor=#E67300;strokeColor=#663300;" vertex="1" parent="WIyWlLk6GJQsqaUBKTNV-1">
          <mxGeometry x="225" y="400" width="290" height="50" as="geometry" />
        </mxCell>
        <mxCell id="b3d6tO9OOzQfFbIuxBPO-19" value="&lt;div&gt;Optimal rotation angle&lt;/div&gt;&lt;div&gt;POA irradiance&lt;br&gt;&lt;/div&gt;" style="rounded=0;whiteSpace=wrap;html=1;fillColor=#1ba1e2;fontColor=#ffffff;strokeColor=default;" vertex="1" parent="WIyWlLk6GJQsqaUBKTNV-1">
          <mxGeometry x="280" y="500" width="180" height="60" as="geometry" />
        </mxCell>
        <mxCell id="b3d6tO9OOzQfFbIuxBPO-22" style="edgeStyle=orthogonalEdgeStyle;rounded=0;orthogonalLoop=1;jettySize=auto;html=1;entryX=0.5;entryY=0;entryDx=0;entryDy=0;strokeWidth=2;" edge="1" parent="WIyWlLk6GJQsqaUBKTNV-1" source="b3d6tO9OOzQfFbIuxBPO-21" target="b3d6tO9OOzQfFbIuxBPO-1">
          <mxGeometry relative="1" as="geometry" />
        </mxCell>
        <mxCell id="b3d6tO9OOzQfFbIuxBPO-21" value="Maximum rotation angle" style="rounded=1;whiteSpace=wrap;html=1;fontSize=12;glass=0;strokeWidth=1;shadow=0;fillColor=#60a917;fontColor=#ffffff;strokeColor=#2D7600;" vertex="1" parent="WIyWlLk6GJQsqaUBKTNV-1">
          <mxGeometry x="535" y="45" width="140" height="40" as="geometry" />
        </mxCell>
      </root>
    </mxGraphModel>
  </diagram>
</mxfile>
